<svg width="195" height="75" viewBox="0 0 195 75" fill="none" xmlns="http://www.w3.org/2000/svg">
<path d="M34.7259 11.3332C34.7259 13.8932 32.6741 15.9806 30.1577 15.9806C27.6413 15.9806 25.5895 13.8932 25.5895 11.3332C25.5895 8.77323 27.6413 6.68585 30.1577 6.68585C32.6741 6.68585 34.7259 8.77323 34.7259 11.3332ZM10.7236 25.9449C11.1882 25.7086 11.5753 25.4329 11.9237 25.0391C12.7367 24.212 13.2013 23.1092 13.2787 21.9671C13.3174 21.4157 13.2013 20.9431 13.1626 20.3917C13.1238 19.8403 13.2013 19.2495 13.3561 18.6982C14.0142 16.4138 16.2983 14.996 18.5824 15.3898C20.7504 15.7443 22.957 14.5234 23.7313 12.436C24.4668 10.5062 23.8474 8.22185 22.2215 6.96154C20.6342 5.70123 18.3501 5.70123 16.6855 6.88277C15.7951 7.55231 15.1369 8.53693 14.8659 9.63969C14.7498 10.1911 14.7111 10.7425 14.7885 11.2938C14.8659 11.8058 14.9047 12.3178 14.8659 12.8692C14.5949 15.2323 12.5819 17.044 10.2591 17.0834C9.75579 17.0834 9.25251 16.9652 8.71053 16.9258C8.16854 16.9258 7.62656 17.0046 7.08457 17.2015C6.03931 17.556 5.14891 18.3437 4.60692 19.2889C3.60037 21.0612 3.87137 23.3849 5.26505 24.8815C6.65872 26.4569 8.90409 26.8508 10.7236 25.9449ZM17.6533 17.8317C17.2275 18.068 16.8016 18.3437 16.4532 18.6982C15.6789 19.4858 15.1756 20.5886 15.1369 21.7308C15.0982 22.2428 15.2144 22.7548 15.2531 23.2668C15.2918 23.8182 15.2144 24.3695 15.0595 24.9209C14.4014 27.1265 12.156 28.5443 9.94935 28.1505C7.82012 27.796 5.69089 28.9775 4.91663 31.0649C4.18107 32.9554 4.80049 35.1609 6.42644 36.4212C8.01369 37.6422 10.2203 37.6815 11.8463 36.5C12.7367 35.8305 13.3948 34.8852 13.6271 33.7825C13.7433 33.2705 13.782 32.6797 13.7045 32.1677C13.6271 31.6557 13.5884 31.1437 13.6271 30.6317C13.8594 28.308 15.8338 26.5357 18.1179 26.5357C18.6211 26.5357 19.1244 26.6538 19.6277 26.6932C20.1697 26.6932 20.7116 26.6145 21.2149 26.4175C22.2215 26.0631 23.1119 25.3148 23.6539 24.3695C24.6604 22.6366 24.3894 20.3523 23.0344 18.8557C21.6408 17.3591 19.4341 16.9258 17.6533 17.8317Z" fill="white"/>
<g filter="url(#filter0_d_0_833)">
<path d="M32.2054 24.5857H38.1739C40.2499 24.5857 42.0376 25.0182 43.5658 25.8544C45.0939 26.6905 46.2761 27.8727 47.0834 29.372C47.8908 30.9002 48.3233 32.659 48.3233 34.6774C48.3233 36.6957 47.8908 38.4545 47.0834 39.9827C46.2761 41.5109 45.0939 42.693 43.5658 43.5292C42.0376 44.3654 40.2499 44.769 38.1739 44.769H32.2054V24.5857ZM38.1739 42.4624C40.5671 42.4624 42.4413 41.7704 43.7676 40.3575C45.0939 38.9735 45.7571 37.0705 45.7571 34.6774C45.7571 32.2842 45.0939 30.3812 43.7676 28.9972C42.4413 27.6132 40.5959 26.8924 38.1739 26.8924H34.7139V42.4624H38.1739ZM51.205 33.4664C51.7817 32.3419 52.6178 31.4769 53.6847 30.8425C54.7227 30.2082 55.9337 29.891 57.3177 29.891C58.644 29.891 59.855 30.1794 60.893 30.7272C61.931 31.3039 62.7383 32.1112 63.3438 33.1492C63.9205 34.216 64.2377 35.4559 64.2953 36.8687C64.2953 37.0994 64.2665 37.4165 64.2377 37.8779H52.8197V38.0797C52.8485 39.5214 53.281 40.6747 54.146 41.5397C54.9822 42.4047 56.0778 42.8372 57.4618 42.8372C58.4998 42.8372 59.3937 42.5777 60.1433 42.0587C60.893 41.5397 61.3832 40.79 61.6427 39.8385H64.0358C63.7475 41.3379 63.0267 42.5777 61.8733 43.5292C60.72 44.4807 59.3072 44.942 57.6348 44.942C56.1643 44.942 54.8957 44.6537 53.8 44.0194C52.7043 43.385 51.8393 42.52 51.2338 41.3667C50.6283 40.2134 50.34 38.9159 50.34 37.4165C50.34 35.9172 50.6283 34.6197 51.205 33.4664ZM61.8445 35.9172C61.7292 34.6774 61.239 33.697 60.4317 33.005C59.6243 32.313 58.5863 31.967 57.3465 31.967C56.222 31.967 55.2417 32.3419 54.4055 33.0627C53.5405 33.8124 53.0792 34.7639 52.9638 35.9172H61.8445ZM64.6713 30.064H67.2086L71.649 42.0875L76.0605 30.064H78.5401L73.033 44.769H70.1785L64.6713 30.064ZM97.6339 39.9539C96.8266 41.5109 95.6732 42.7507 94.2316 43.6157C92.7611 44.5095 91.0887 44.942 89.2434 44.942C87.3692 44.942 85.6969 44.5095 84.2552 43.6157C82.7847 42.7507 81.6314 41.5109 80.8241 39.9539C80.0167 38.3969 79.6131 36.638 79.6131 34.6774C79.6131 32.7167 80.0167 30.9579 80.8241 29.4009C81.6314 27.8439 82.7847 26.6329 84.2552 25.739C85.6969 24.874 87.3692 24.4127 89.2434 24.4127C91.0887 24.4127 92.7611 24.874 94.2316 25.739C95.6732 26.6329 96.8266 27.8439 97.6339 29.4009C98.4412 30.9579 98.8737 32.7167 98.8737 34.6774C98.8737 36.638 98.4412 38.3969 97.6339 39.9539ZM83.0731 38.8005C83.6497 40.0115 84.4859 40.9342 85.5527 41.6262C86.6196 42.3182 87.8594 42.6354 89.2434 42.6354C90.6274 42.6354 91.8384 42.3182 92.9052 41.6262C93.9721 40.9342 94.8082 40.0115 95.4137 38.8005C95.9904 37.5895 96.3076 36.2344 96.3076 34.6774C96.3076 33.1492 95.9904 31.794 95.4137 30.583C94.8082 29.372 93.9721 28.4494 92.9052 27.7574C91.8384 27.0654 90.6274 26.7194 89.2434 26.7194C87.8594 26.7194 86.6196 27.0654 85.5527 27.7574C84.4859 28.4494 83.6497 29.372 83.0731 30.583C82.4676 31.794 82.1792 33.1492 82.1792 34.6774C82.1792 36.2344 82.4676 37.5895 83.0731 38.8005ZM112.453 30.7849C113.52 31.3904 114.356 32.2554 114.961 33.3799C115.567 34.5332 115.884 35.8595 115.884 37.4165C115.884 38.9159 115.567 40.2134 114.961 41.3379C114.356 42.4912 113.52 43.3562 112.453 43.9905C111.357 44.6249 110.146 44.942 108.82 44.942C107.609 44.942 106.6 44.7402 105.764 44.3077C104.899 43.8752 104.235 43.2697 103.774 42.52V50.5357H101.41V30.064H103.457L103.774 32.4284C104.985 30.756 106.686 29.891 108.82 29.891C110.175 29.891 111.386 30.2082 112.453 30.7849ZM112.107 41.3379C113.001 40.3287 113.462 39.0312 113.462 37.4165C113.462 35.8307 113.001 34.5332 112.107 33.524C111.213 32.5149 110.031 31.9959 108.589 31.9959C107.638 31.9959 106.802 32.2265 106.052 32.6879C105.302 33.1492 104.754 33.7835 104.351 34.5909C103.947 35.3982 103.745 36.3209 103.745 37.3589C103.745 38.4257 103.947 39.3772 104.351 40.2134C104.754 41.0495 105.302 41.6839 106.052 42.1452C106.802 42.6065 107.638 42.8372 108.589 42.8372C110.031 42.8372 111.213 42.347 112.107 41.3379ZM119.109 32.2265H116.456V30.064H119.109V25.9409H121.473V30.064H125.193V32.2265H121.473V40.9054C121.473 41.5397 121.589 41.9722 121.819 42.2317C122.05 42.4912 122.482 42.6065 123.088 42.6065H125.654V44.769H122.944C121.56 44.769 120.551 44.4807 119.974 43.8464C119.397 43.2409 119.109 42.2605 119.109 40.9342V32.2265ZM129.326 24.8164C129.614 25.1047 129.758 25.4795 129.758 25.912C129.758 26.3734 129.614 26.7194 129.326 27.0077C129.037 27.296 128.662 27.4402 128.23 27.4402C127.769 27.4402 127.423 27.296 127.134 27.0077C126.846 26.7194 126.702 26.3734 126.702 25.912C126.702 25.4795 126.846 25.1047 127.134 24.8164C127.423 24.528 127.769 24.3839 128.23 24.3839C128.662 24.3839 129.037 24.528 129.326 24.8164ZM127.048 30.064H129.412V44.769H127.048V30.064ZM152.777 31.448C153.815 32.486 154.334 34.1007 154.334 36.292V44.769H151.969V36.4362C151.969 35.0234 151.652 33.9277 151.047 33.178C150.441 32.4284 149.576 32.0535 148.481 32.0535C147.241 32.0535 146.26 32.486 145.568 33.351C144.876 34.216 144.53 35.3982 144.53 36.8975V44.769H142.166V36.4362C142.166 35.0234 141.849 33.9277 141.243 33.178C140.609 32.4284 139.744 32.0535 138.62 32.0535C137.409 32.0535 136.457 32.5149 135.765 33.4375C135.073 34.3602 134.727 35.5424 134.727 37.0129V44.769H132.363V30.064H134.41L134.727 32.0824C135.765 30.6407 137.207 29.891 139.023 29.891C140.061 29.891 141.013 30.1505 141.82 30.6119C142.627 31.0732 143.262 31.7652 143.665 32.6879C144.703 30.8425 146.405 29.891 148.769 29.891C150.412 29.891 151.739 30.41 152.777 31.448ZM170.832 42.6065V44.769H169.534C168.583 44.769 167.92 44.596 167.516 44.1924C167.112 43.8175 166.882 43.2409 166.882 42.4912C165.728 44.1347 164.085 44.942 161.951 44.942C160.308 44.942 158.981 44.5672 158.001 43.7887C157.021 43.039 156.53 41.9722 156.53 40.6459C156.53 39.1754 157.021 38.0509 158.03 37.2435C159.039 36.465 160.509 36.0614 162.441 36.0614H166.766V35.0522C166.766 34.1007 166.42 33.351 165.786 32.8032C165.152 32.2842 164.258 31.9959 163.104 31.9959C162.066 31.9959 161.23 32.2265 160.567 32.6879C159.904 33.1492 159.5 33.7259 159.356 34.4755H156.992C157.165 33.0339 157.799 31.9094 158.895 31.102C159.99 30.2947 161.432 29.891 163.22 29.891C165.094 29.891 166.536 30.3524 167.574 31.275C168.612 32.1977 169.131 33.4952 169.131 35.1964V41.5397C169.131 42.2605 169.448 42.6065 170.111 42.6065H170.832ZM166.766 38.0509H162.211C160.019 38.0509 158.924 38.887 158.924 40.5017C158.924 41.2514 159.212 41.828 159.789 42.2605C160.365 42.7219 161.144 42.9237 162.124 42.9237C163.566 42.9237 164.69 42.5489 165.526 41.7992C166.334 41.0495 166.766 40.0404 166.766 38.7717V38.0509Z" fill="white"/>
</g>
<defs>
<filter id="filter0_d_0_833" x="8.17767" y="0.356133" width="186.682" height="74.2074" filterUnits="userSpaceOnUse" color-interpolation-filters="sRGB">
<feFlood flood-opacity="0" result="BackgroundImageFix"/>
<feColorMatrix in="SourceAlpha" type="matrix" values="0 0 0 0 0 0 0 0 0 0 0 0 0 0 0 0 0 0 127 0" result="hardAlpha"/>
<feOffset/>
<feGaussianBlur stdDeviation="12.0139"/>
<feComposite in2="hardAlpha" operator="out"/>
<feColorMatrix type="matrix" values="0 0 0 0 1 0 0 0 0 1 0 0 0 0 1 0 0 0 0.2 0"/>
<feBlend mode="normal" in2="BackgroundImageFix" result="effect1_dropShadow_0_833"/>
<feBlend mode="normal" in="SourceGraphic" in2="effect1_dropShadow_0_833" result="shape"/>
</filter>
</defs>
</svg>
