<svg width="1920" height="753" viewBox="0 0 1920 753" fill="none" xmlns="http://www.w3.org/2000/svg">
<mask id="mask0_0_601" style="mask-type:alpha" maskUnits="userSpaceOnUse" x="913" y="338" width="1340" height="415">
<ellipse cx="1583" cy="545.5" rx="670" ry="207.5" fill="url(#paint0_radial_0_601)"/>
</mask>
<g mask="url(#mask0_0_601)">
<path d="M1666.46 -37.7246L1666.46 749.725" stroke="#172136"/>
<path d="M1574.83 -37.7246L1574.83 749.725" stroke="#172136"/>
<path d="M1759.06 -37.7246L1759.06 749.725" stroke="#172136"/>
<path d="M1850.69 -37.7246L1850.69 749.725" stroke="#172136"/>
<path d="M1712.76 -37.7246L1712.76 749.725" stroke="#172136"/>
<path d="M1621.13 -37.7246L1621.13 749.725" stroke="#172136"/>
<path d="M1805.36 -37.7246L1805.36 749.725" stroke="#172136"/>
<path d="M1896.99 -37.7246L1896.99 749.725" stroke="#172136"/>
<path d="M1572.9 657.197L2357.08 657.197" stroke="#172136"/>
<path d="M1572.9 749.725L2357.08 749.725" stroke="#172136"/>
<path d="M1572.9 564.669L2357.08 564.669" stroke="#172136"/>
<path d="M1572.9 472.142L2357.08 472.142" stroke="#172136"/>
<path d="M1572.9 379.614L2357.08 379.614" stroke="#172136"/>
<path d="M1572.9 610.934L2357.08 610.934" stroke="#172136"/>
<path d="M1572.9 703.461L2357.08 703.461" stroke="#172136"/>
<path d="M1572.9 518.405L2357.08 518.405" stroke="#172136"/>
<path d="M1572.9 425.878L2357.08 425.878" stroke="#172136"/>
<path d="M976.806 -37.7246L976.806 749.725" stroke="#172136"/>
<path d="M1068.44 -37.7246L1068.44 749.725" stroke="#172136"/>
<path d="M1161.04 -37.7246L1161.04 749.725" stroke="#172136"/>
<path d="M1252.67 -37.7246L1252.67 749.725" stroke="#172136"/>
<path d="M1344.3 -37.7246L1344.3 749.725" stroke="#172136"/>
<path d="M1436.9 -37.7246L1436.9 749.725" stroke="#172136"/>
<path d="M1528.53 -37.7246L1528.53 749.725" stroke="#172136"/>
<path d="M930.508 -37.7246L930.508 749.725" stroke="#172136"/>
<path d="M1023.1 -37.7246L1023.1 749.725" stroke="#172136"/>
<path d="M1114.74 -37.7246L1114.74 749.725" stroke="#172136"/>
<path d="M1206.37 -37.7246L1206.37 749.725" stroke="#172136"/>
<path d="M1298.97 -37.7246L1298.97 749.725" stroke="#172136"/>
<path d="M1390.6 -37.7246L1390.6 749.725" stroke="#172136"/>
<path d="M1483.2 -37.7246L1483.2 749.725" stroke="#172136"/>
<path d="M1574.83 -37.7246L1574.83 749.725" stroke="#172136"/>
<path d="M790.648 657.197L1574.83 657.197" stroke="#172136"/>
<path d="M790.648 749.725L1574.83 749.725" stroke="#172136"/>
<path d="M790.648 564.67L1574.83 564.67" stroke="#172136"/>
<path d="M790.648 472.142L1574.83 472.142" stroke="#172136"/>
<path d="M790.648 379.614L1574.83 379.614" stroke="#172136"/>
<path d="M790.648 610.934L1574.83 610.934" stroke="#172136"/>
<path d="M790.648 703.461L1574.83 703.461" stroke="#172136"/>
<path d="M790.648 518.405L1574.83 518.405" stroke="#172136"/>
<path d="M790.648 425.878L1574.83 425.878" stroke="#172136"/>
</g>
<mask id="mask1_0_601" style="mask-type:alpha" maskUnits="userSpaceOnUse" x="-39" y="-10" width="1340" height="357">
<ellipse cx="631" cy="168.5" rx="670" ry="178.5" fill="url(#paint1_radial_0_601)"/>
</mask>
<g mask="url(#mask1_0_601)">
<path d="M563.897 -270.725L563.897 516.725" stroke="#172136"/>
<path d="M472.333 -270.725L472.333 516.725" stroke="#172136"/>
<path d="M656.425 -270.725L656.425 516.725" stroke="#172136"/>
<path d="M747.989 -270.725L747.989 516.725" stroke="#172136"/>
<path d="M840.517 -270.725L840.517 516.725" stroke="#172136"/>
<path d="M932.081 -270.725L932.081 516.725" stroke="#172136"/>
<path d="M1023.64 -270.725L1023.64 516.725" stroke="#172136"/>
<path d="M1116.17 -270.725L1116.17 516.725" stroke="#172136"/>
<path d="M1207.74 -270.725L1207.74 516.725" stroke="#172136"/>
<path d="M610.161 -270.725L610.161 516.725" stroke="#172136"/>
<path d="M518.597 -270.725L518.597 516.725" stroke="#172136"/>
<path d="M702.689 -270.725L702.689 516.725" stroke="#172136"/>
<path d="M794.253 -270.725L794.253 516.725" stroke="#172136"/>
<path d="M885.817 -270.725L885.817 516.725" stroke="#172136"/>
<path d="M978.344 -270.725L978.344 516.725" stroke="#172136"/>
<path d="M1069.91 -270.725L1069.91 516.725" stroke="#172136"/>
<path d="M1162.44 -270.725L1162.44 516.725" stroke="#172136"/>
<path d="M1254 -270.725L1254 516.725" stroke="#172136"/>
<path d="M470.406 331.669L1254 331.669" stroke="#172136"/>
<path d="M470.406 239.141L1254 239.141" stroke="#172136"/>
<path d="M470.406 146.614L1254 146.614" stroke="#172136"/>
<path d="M470.406 54.0857L1254 54.0856" stroke="#172136"/>
<path d="M470.406 285.405L1254 285.405" stroke="#172136"/>
<path d="M470.406 192.878L1254 192.878" stroke="#172136"/>
<path d="M470.406 100.349L1254 100.349" stroke="#172136"/>
<path d="M470.406 7.82227L1254 7.8222" stroke="#172136"/>
<path d="M58.8501 -270.725L58.8501 516.725" stroke="#172136"/>
<path d="M150.414 -270.725L150.414 516.725" stroke="#172136"/>
<path d="M241.978 -270.725L241.978 516.725" stroke="#172136"/>
<path d="M334.506 -270.725L334.506 516.725" stroke="#172136"/>
<path d="M426.07 -270.725L426.07 516.725" stroke="#172136"/>
<path d="M12.5862 -270.725L12.5862 516.725" stroke="#172136"/>
<path d="M104.15 -270.725L104.15 516.725" stroke="#172136"/>
<path d="M196.678 -270.725L196.678 516.725" stroke="#172136"/>
<path d="M288.242 -270.725L288.242 516.725" stroke="#172136"/>
<path d="M380.77 -270.725L380.77 516.725" stroke="#172136"/>
<path d="M472.333 -270.725L472.333 516.725" stroke="#172136"/>
<path d="M-311.261 331.67L472.333 331.67" stroke="#172136"/>
<path d="M-311.261 239.142L472.333 239.142" stroke="#172136"/>
<path d="M-311.261 146.614L472.333 146.614" stroke="#172136"/>
<path d="M-311.261 54.0857L472.333 54.0856" stroke="#172136"/>
<path d="M-311.261 285.405L472.333 285.405" stroke="#172136"/>
<path d="M-311.261 192.878L472.333 192.878" stroke="#172136"/>
<path d="M-311.261 100.35L472.333 100.35" stroke="#172136"/>
<path d="M-311.261 7.82202L472.333 7.82195" stroke="#172136"/>
</g>
<circle cx="381" cy="193" r="1" fill="#3D79F5"/>
<circle cx="1253" cy="611" r="1" fill="#3D79F5"/>
<circle cx="1529" cy="472" r="1" fill="#3D79F5"/>
<circle cx="1483" cy="518" r="1" fill="#3D79F5"/>
<circle cx="519" cy="239" r="1" fill="#3D79F5"/>
<circle cx="472" cy="147" r="1" fill="#3D79F5"/>
<circle cx="932" cy="239" r="1" fill="#243BB9"/>
<circle cx="1070" cy="193" r="1" fill="#012A7E"/>
<circle cx="1575" cy="380" r="1" fill="#012A7E"/>
<circle cx="1483" cy="611" r="1" fill="#012A7E"/>
<defs>
<radialGradient id="paint0_radial_0_601" cx="0" cy="0" r="1" gradientUnits="userSpaceOnUse" gradientTransform="translate(1583 545.5) rotate(90) scale(207.5 670)">
<stop stop-color="#0054FF"/>
<stop offset="1" stop-color="#0A0C0F" stop-opacity="0"/>
</radialGradient>
<radialGradient id="paint1_radial_0_601" cx="0" cy="0" r="1" gradientUnits="userSpaceOnUse" gradientTransform="translate(631 168.5) rotate(90) scale(178.5 670)">
<stop stop-color="#0054FF"/>
<stop offset="1" stop-color="#0A0C0F" stop-opacity="0"/>
</radialGradient>
</defs>
</svg>
